<svg xmlns="http://www.w3.org/2000/svg" width="640" height="480" viewBox="0 0 640 480" role="img" aria-label="A council dais with nameplates and a city seal">
  <rect width="640" height="480" fill="#f2efe7"/>
  <g fill="none" stroke="#17150f" stroke-width="3" stroke-linecap="round" stroke-linejoin="round">
    <path d="M40 330 C160 250 480 250 600 330 L600 400 C480 320 160 320 40 400 Z"/>
    <path d="M40 330 C160 250 480 250 600 330"/>
    <circle cx="320" cy="345" r="30"/>
    <circle cx="320" cy="345" r="20"/>
    <rect x="96" y="262" width="52" height="14"/>
    <rect x="170" y="248" width="52" height="14"/>
    <rect x="244" y="240" width="52" height="14"/>
    <rect x="344" y="240" width="52" height="14"/>
    <rect x="418" y="248" width="52" height="14"/>
    <rect x="492" y="262" width="52" height="14"/>
    <rect x="102" y="200" width="40" height="52"/>
    <rect x="176" y="186" width="40" height="52"/>
    <rect x="250" y="178" width="40" height="52"/>
    <rect x="350" y="178" width="40" height="52"/>
    <rect x="424" y="186" width="40" height="52"/>
    <rect x="498" y="200" width="40" height="52"/>
    <line x1="300" y1="236" x2="300" y2="90"/>
    <path d="M300 96 L352 110 L300 124 Z"/>
    <line x1="40" y1="430" x2="600" y2="430"/>
  </g>
  <text x="40" y="455" font-family="Palatino Linotype, Palatino, Georgia, serif" font-size="14" fill="#656152" letter-spacing="1.5">ILLUSTRATION PLACEHOLDER. SWAP FOR A PHOTO.</text>
</svg>
